<?xml version="1.0" ?><svg enable-background="new 0 0 504 504" id="Layer_1" version="1.1" viewBox="0 0 504 504" xml:space="preserve" xmlns="http://www.w3.org/2000/svg" xmlns:xlink="http://www.w3.org/1999/xlink"><path d="M454.6,256.6c-9.2,58.5-27.1,75.6-58.8,114.9c-31.7,33.3-77.3,88.9-141.9,85.8  c-58.5-9.2-75.6-27.1-114.9-58.8c-33.3-31.7-88.9-77.3-85.8-141.9c9.2-58.5,27.1-75.6,58.8-114.9c31.7-33.3,77.3-88.9,141.9-85.8  c58.5,9.2,75.6,27.1,114.9,58.8C402.1,146.4,457.7,192,454.6,256.6z" fill="#3765AF"/><g><g><path d="M254.9,258.8l-35.2-35.9l-1.3-1.3c-20.2-20.6-53-20.6-73.1-0.1c-20.2,20.5-20.2,53.9,0,74.5    c20.1,20.6,52.8,20.6,73,0L254.9,258.8z" fill="#3765AF"/></g><path d="M254.9,258.8v50.7l0.1,1.9c0,29.1-23.2,52.8-51.7,52.8c-28.6,0-51.7-23.6-51.7-52.7   c0-29.1,23.3-52.7,51.7-52.7L254.9,258.8L254.9,258.8z" fill="#FFFFFF"/><path d="M254.9,258.8v50.7l0.1,1.9c0,29.1-23.2,52.8-51.7,52.8c-28.6,0-51.7-23.6-51.7-52.7   c0-29.1,23.3-52.7,51.7-52.7L254.9,258.8L254.9,258.8z" fill="#3765AF"/><path d="M254.9,258.8v50.7l0.1,1.9c0,29.1-23.2,52.8-51.7,52.8c-28.6,0-51.7-23.6-51.7-52.7c0-3.2,0.3-6.4,0.9-9.4   c20.2,14.3,48,12.3,66-6.1L254.9,258.8L254.9,258.8L254.9,258.8z" fill="#3765AF"/><path d="M203.3,265.4c-24.9,0-45.1,20.6-45.1,46.1c0,25.4,20.2,46,45.1,46c25,0,45.1-20.6,45.1-46v-2v-44.1H203.3   L203.3,265.4z" fill="#FFFFFF"/><path d="M254.9,258.8l35.2,35.9l1.4,1.3c20.1,20.6,20.2,54.1,0,74.6c-20.2,20.6-52.9,20.6-73.2,0   c-20.2-20.5-20.2-54,0-74.6L254.9,258.8z" fill="#3765AF"/><path d="M223.1,300.7c-17.7,18-17.7,47.2,0,65.1c17.6,18,46.2,18,63.8,0c17.6-17.9,17.6-47.1,0-65.1l-1.5-1.3   l-30.5-31.2L223.1,300.7L223.1,300.7L223.1,300.7z" fill="#FFFFFF"/><path d="M254.9,258.8h49.8l1.8-0.1c28.6,0,51.7,23.6,51.7,52.7c0,29.1-23.1,52.7-51.7,52.7   c-28.6,0-51.7-23.6-51.7-52.7L254.9,258.8L254.9,258.8z" fill="#3765AF"/><path d="M261.5,311.4c0,25.4,20.2,46,45.1,46c24.9,0,45-20.6,45-46c0-25.5-20.2-46-45-46h-1.9h-43.2v45.9V311.4z" fill="#FFFFFF"/><path d="M254.9,258.8l35.2-35.9l1.4-1.4c20.2-20.6,52.9-20.6,73.1-0.1c20.2,20.6,20.2,54,0,74.6   c-20.2,20.6-52.9,20.6-73.1,0L254.9,258.8z" fill="#3765AF"/><path d="M296.2,291.2c17.5,18,46.1,18,63.7,0c17.7-17.9,17.7-47,0-65c-17.7-18-46.2-18-63.7,0l-1.4,1.4l-30.5,31.2   l31.7,32.4L296.2,291.2z" fill="#FFFFFF"/><path d="M254.9,258.8V208v-1.9c0-29.1,23.1-52.7,51.7-52.7c28.5,0,51.6,23.5,51.6,52.6c0,29.1-23.1,52.7-51.6,52.7   L254.9,258.8L254.9,258.8z" fill="#3765AF"/><path d="M306.7,252.1c24.9,0,45-20.6,45-46c0-25.4-20.2-46-45-46c-25,0-45.2,20.6-45.2,46l0.1,2v44.1h44.9   L306.7,252.1L306.7,252.1z" fill="#FFFFFF"/><path d="M254.9,258.8l-35.2-35.9l-1.4-1.3c-20.2-20.6-20.2-54.1,0-74.6c20.1-20.6,52.9-20.6,73.1,0   c20.2,20.6,20.2,54,0,74.5L254.9,258.8z" fill="#3765AF"/><path d="M286.8,217.2c17.6-18,17.6-47.1,0-65.1c-17.7-18-46.2-18-63.8,0c-17.7,17.9-17.7,47.1,0,65.1l1.3,1.4   l30.6,31.1L286.8,217.2L286.8,217.2z" fill="#FFFFFF"/><path d="M254.9,259.2h-49.8l-1.9,0.1c-28.5,0-51.7-23.6-51.7-52.7c0-29.1,23.2-52.7,51.6-52.7   c28.6,0,51.7,23.6,51.7,52.7L254.9,259.2L254.9,259.2z" fill="#3765AF"/><path d="M248.4,206.5c0-25.4-20.2-46-45.2-46c-24.9,0-45.1,20.6-45.1,46c0,25.4,20.2,46.1,45.1,46.1l2-0.1h43.2   V206.5L248.4,206.5z" fill="#FFFFFF"/><path d="M254.9,259.2l-124.8,0.1c0-13.5,5-27,15.2-37.3c20.1-20.6,52.8-20.6,73,0L254.9,259.2z" fill="#3765AF"/><path d="M213.8,226.7l31.9,32.5h-42.4c-22.9,0-42.4,15.2-49.1,36.4c-1.4-1.2-2.8-2.5-4.1-3.8   c-17.7-18-17.7-47,0-65.1C167.5,208.7,196.2,208.7,213.8,226.7" fill="#FFFFFF"/></g></svg>