<?xml version="1.0" standalone="no"?>
<!DOCTYPE svg PUBLIC "-//W3C//DTD SVG 20010904//EN"
 "http://www.w3.org/TR/2001/REC-SVG-20010904/DTD/svg10.dtd">
<svg version="1.0" xmlns="http://www.w3.org/2000/svg"
 width="700.000000pt" height="700.000000pt" viewBox="0 0 700.000000 700.000000"
 preserveAspectRatio="xMidYMid meet">
<metadata>
Created by potrace 1.11, written by Peter Selinger 2001-2013
</metadata>
<g transform="translate(0.000000,700.000000) scale(0.100000,-0.100000)"
fill="#000000" stroke="none">
<path d="M3299 6846 c-2 -2 -42 -7 -89 -10 -547 -40 -1163 -278 -1615 -625
-224 -172 -465 -420 -612 -630 -26 -36 -54 -75 -64 -86 -41 -49 -37 -56 86
-140 63 -43 117 -76 119 -74 2 2 36 45 75 94 120 152 353 377 481 466 19 13
37 27 40 30 3 4 41 29 85 58 44 28 86 55 92 61 30 25 327 171 423 208 95 37
278 96 326 107 224 47 297 59 449 71 163 14 473 8 585 -11 14 -2 68 -11 120
-20 241 -40 478 -119 725 -240 291 -143 531 -320 748 -553 l29 -30 -156 -156
c-86 -86 -156 -163 -156 -170 0 -40 12 -41 559 -42 298 -1 535 3 546 8 21 9
21 14 19 546 0 295 -2 542 -3 548 0 7 -13 14 -27 17 -22 4 -46 -17 -185 -154
-88 -88 -163 -159 -168 -159 -4 0 -16 10 -27 21 -73 81 -478 389 -513 389 -5
0 -11 3 -13 8 -5 11 -167 101 -283 157 -133 63 -319 137 -430 169 -49 15 -112
33 -140 42 -27 8 -61 16 -75 19 -14 3 -47 9 -75 15 -27 6 -61 13 -75 15 -33 7
-202 33 -265 40 -58 7 -530 17 -536 11z"/>
<path d="M3388 5265 c-2 -2 -37 -6 -77 -9 -376 -35 -765 -219 -1044 -494 -487
-478 -656 -1177 -441 -1822 199 -595 697 -1038 1317 -1169 199 -43 446 -47
657 -12 270 45 585 186 800 359 518 417 761 1086 630 1733 -26 129 -41 176
-96 314 -93 230 -216 414 -394 591 -280 277 -636 448 -1040 500 -51 6 -307 13
-312 9z m-38 -692 l0 -358 -221 0 -220 0 6 35 c10 53 72 215 117 305 78 156
169 273 267 343 24 18 46 32 48 32 1 0 3 -161 3 -357z m364 317 c45 -33 129
-127 171 -191 83 -125 223 -454 202 -475 -5 -6 -219 -8 -399 -5 l-38 1 0 355
0 355 22 -12 c12 -7 31 -20 42 -28z m-938 -180 c-41 -79 -108 -235 -122 -285
-1 -5 -16 -55 -32 -109 l-28 -99 -183 0 c-100 1 -184 3 -186 5 -2 2 26 48 63
103 72 108 229 274 327 346 61 45 197 130 202 126 1 -2 -17 -41 -41 -87z
m1574 -14 c111 -76 284 -252 363 -371 36 -55 64 -101 62 -103 -3 -3 -260 -5
-352 -3 -17 1 -23 10 -32 49 -25 114 -119 360 -178 465 -18 33 -33 61 -33 64
0 7 84 -43 170 -101z m-1815 -820 c-25 -176 -25 -589 1 -762 l5 -31 -225 -1
c-221 0 -224 0 -229 21 -3 12 -10 40 -16 62 -25 103 -36 206 -35 340 0 143 8
213 40 347 l16 66 225 0 224 0 -6 -42z m815 -376 l0 -418 -250 0 c-138 0 -252
4 -255 7 -5 10 -14 75 -24 186 -7 81 -6 415 3 490 1 17 6 58 10 92 l8 62 254
0 254 0 0 -419z m812 397 c0 -12 2 -33 4 -47 15 -138 19 -208 18 -350 0 -141
-7 -280 -18 -355 -2 -11 -4 -29 -5 -41 -1 -20 -5 -21 -256 -21 l-255 -1 0 418
0 418 255 0 c254 0 255 0 257 -21z m753 -7 c4 -16 7 -33 7 -37 0 -5 4 -17 8
-28 4 -11 10 -40 14 -65 3 -25 9 -56 12 -70 10 -41 12 -293 3 -362 -5 -34 -18
-104 -30 -154 l-21 -92 -225 0 -224 1 5 31 c26 169 26 657 0 763 -3 12 -3 26
0 31 3 6 100 10 225 11 l220 0 6 -29z m-2334 -1109 c10 -1 20 -19 28 -53 34
-134 102 -312 166 -438 25 -46 43 -85 41 -87 -6 -6 -183 111 -249 165 -38 30
-102 92 -144 136 -80 87 -207 267 -193 276 6 4 290 5 351 1z m767 -355 l2
-357 -31 18 c-48 28 -156 140 -204 213 -78 118 -181 350 -200 450 l-6 35 218
-1 218 -1 3 -357z m739 350 c10 -10 -53 -189 -106 -301 -26 -55 -69 -133 -95
-173 -52 -78 -154 -186 -205 -215 l-31 -18 0 354 c0 194 2 356 4 358 7 7 426
2 433 -5z m686 5 c4 -1 -10 -29 -32 -63 -123 -193 -295 -362 -486 -476 -38
-23 -70 -40 -72 -39 -1 2 18 42 42 89 53 101 122 279 156 398 13 47 26 87 30
90 6 4 326 5 362 1z"/>
<path d="M899 1836 c-13 -9 -15 -85 -14 -549 0 -512 1 -539 18 -552 11 -8 26
-11 35 -7 10 3 86 75 170 160 84 84 156 152 161 150 4 -2 40 -32 79 -67 318
-285 702 -510 1106 -648 100 -34 250 -78 296 -87 14 -2 45 -9 70 -15 89 -20
246 -45 370 -58 153 -16 592 -8 715 13 17 3 43 7 58 9 90 13 124 19 242 46
133 30 320 85 410 121 223 90 366 160 540 267 356 217 686 534 922 885 18 26
33 51 33 56 0 4 -52 43 -116 86 -112 76 -117 78 -130 59 -92 -127 -281 -328
-416 -443 -273 -233 -622 -424 -948 -521 -58 -17 -118 -36 -135 -41 -36 -11
-112 -28 -163 -36 -20 -4 -41 -7 -47 -8 -5 -2 -32 -6 -60 -10 -27 -4 -61 -10
-75 -12 -143 -24 -574 -23 -698 1 -11 2 -42 7 -69 10 -39 6 -121 22 -203 40
-58 12 -156 41 -247 71 -408 137 -783 378 -1077 692 l-28 31 141 140 c77 78
148 152 157 166 16 24 15 27 0 44 -16 18 -43 19 -550 19 -379 0 -536 -4 -547
-12z"/>
</g>
</svg>
